<?xml version="1.0" encoding="utf-8"?>
<!-- Generator: Adobe Illustrator 28.0.0, SVG Export Plug-In . SVG Version: 6.00 Build 0)  -->
<svg version="1.1" id="Layer_1" xmlns="http://www.w3.org/2000/svg" xmlns:xlink="http://www.w3.org/1999/xlink" x="0px" y="0px"
	 viewBox="0 0 364.68 705.77" style="enable-background:new 0 0 364.68 705.77;" xml:space="preserve">
<style type="text/css">
	.st0{fill:#D2302C;}
	.st1{fill:#2DD0D2;}
</style>
<path class="st0" d="M82.22,192.5c1.14,1.14,0.77,4.01,0.88,5.8c0.09,13.14-4.01,30.71-2.3,37.98c1.25,1.37,3.17-1.58,4.54-3.06
	c26.18-33.31,58.24-65.07,67.16-107.7c1.39-9.7,5.01-44.48,10.95-13.68c2.1,11.78,3.32,26.81,3.43,38.43
	c-0.58,69.46-72.34,112.59-90.24,176.86c0.1,0.39,0.79-0.65,1.79-2.51c13.92-26.37,28.86-55.35,50.02-78.59
	c68.48-71.11,126.06-133.26,141.13-236.9c0.51-2.23,0.67-3.81,1.48-3.72c0.47,0.23,0.97,1.97,1.46,4.18
	c66.27,297.43-143.84,237.52-145.14,419.18c-0.48,67.59,56.05,122.7,53.28,189.59c-1.38,21.7-9.99,44.13-30.63,68.05
	c-3.74,4.32-8.13,9.19-11.47,13.26c-20.62,27.19,14.16-68.03-18.62-125.35c-3.5-6.77-7.86-12.62-11.92-19.31
	c-19.56-33.26-48.72-58.32-78.22-82.26c-1.45-2.16-0.64-4.4,0.97-6.16c8.51-8.46,21.08-20.28,21.05-31.71
	c-0.08-4.44-2.72-7.22-6.96-10.14C-55.85,368.7,41.2,260.59,82.17,192.48L82.22,192.5z"/>
<path class="st0" d="M263.87,480.77c-6.76,8.7-13.06,17.46-16.45,25.74c-4.27,10.13-5.55,21.56-4.62,32.52
	c0.59,11.16,6.01,21.16,5.1,31.93c-0.36,4.66-3.7,17.06-7.84,16.51c-3.04-1.85-3.59-10.27-5.15-18.07
	c-4-28.44-21.05-53.3-26.7-81.17c-10.25-53.31,40.4-103.93,72.18-141.64c23.13-26.48,45.47-53.16,57.81-86.92
	c1.45-3.9,3.06-8.55,4.45-12c1.89-4.73,3.57-7.68,5.07-7.96c1.33-0.29,2.54,1.52,3.62,5.06c2.21,7.78,3.41,17.45,4.41,25.84
	c7.27,50.96-9.8,93.45-37.43,135.21"/>
<path class="st1" d="M185.71,444.15c-1.34-2.15-2.88-4.2-3.99-6.47c-3.41-6.95-4.61-14.55-6.19-22.03
	c-2.04-9.75-2.56-19.64-1.88-29.49c0.72-10.41,3.51-20.44,7.99-29.95c6.15-13.07,14.43-24.78,23.53-35.85
	c17.92-21.82,36.23-43.32,54.35-64.97c11.89-14.21,23.01-28.97,31.32-45.62c7.23-14.48,11.7-29.86,14.2-45.83
	c0.86-5.47,1.67-10.95,2.54-16.42c0.07-0.47,0.38-0.9,0.92-2.12c1.9,5.5,4.04,10.31,5.19,15.35c2.1,9.2,3.87,18.49,5.28,27.82
	c0.97,6.43,1.22,12.97,1.54,19.48c0.35,7.05,0.52,14.11,0.6,21.17c0.36,29.67-8.42,56.31-27.16,79.36
	c-12.56,15.44-25.73,30.38-38.53,45.62c-19.87,23.66-39.75,47.32-59.41,71.16c-2.79,3.39-4.4,7.77-6.42,11.76
	c-1.12,2.21-1.99,4.55-2.97,6.82c-0.3,0.07-0.61,0.15-0.91,0.22L185.71,444.15z"/>
<path class="st0" d="M160.5,385.98c0,1.42-0.01,2.84,0,4.26c0.06,5.57-0.4,11.21,0.32,16.7c1.29,9.88,3.69,19.54,7.13,28.94
	c6.16,16.82,14.97,32.28,23.98,47.66c9.47,16.16,19.14,32.21,25.79,49.84c6.14,16.25,10.31,32.92,9.85,50.39
	c-0.72,27.43-10.84,50.99-30.34,70.33c-3.56,3.53-7.89,6.27-11.86,9.37l-0.77-0.55c0.3-1.65,0.41-3.36,0.92-4.94
	c2.31-7.2,4.71-14.38,7.11-21.55c2.75-8.24,4.21-16.69,5.14-25.34c2.78-25.85-5.28-49.08-16.45-71.67
	c-7.68-15.52-15.49-30.97-22.78-46.67c-6.34-13.65-10.75-27.94-11.89-43.08c-1.65-21.85,1.52-42.75,12.15-62.2
	c0.31-0.56,0.7-1.07,1.05-1.6C160.07,385.9,160.29,385.94,160.5,385.98L160.5,385.98z"/>
</svg>
